# xmcd
# 
# Track frame offsets:
#     182
#     13332
#     29740
#     43040
#     62595
#     76430
#     95697
#     111407
#     129750
#     145957
#     157220
#     172480
#     186337
# 
# Disc length: 2704
# 
# Revision: 4
# Processed by: cddbd v1.5.2PL0 Copyright (c) Steve Scherf et al.
# Submitted via: fre:ac v1.0.17
# 
DISCID=c50a8e0d
DTITLE=Various Artist - Jill Morris, 1996
DYEAR=1996
DGENRE=Country
TTITLE0=Jill Morris - Plenty More Love
TTITLE1=Jill Morris - Hollywood Endings
TTITLE2=Jill Morris - Rockin' Horse
TTITLE3=Jill Morris - Mississippi
TTITLE4=Jill Morris - Limbo
TTITLE5=Jill Morris - I Keep Buildin' Bridges
TTITLE6=Jill Morris and T. Graham Brown - Aufwiedersehn, Goodbye
TTITLE7=Jill Morris - Wild Horse Saloon
TTITLE8=Jill Morris - Those Were The Nights
TTITLE9=Jill Morris - Bedroom Promises
TTITLE10=Jill Morris - Alive And Well
TTITLE11=Jill Morris - Mama He'll Do But He Won't Do Right
TTITLE12=Jill Morris - The House By The Garden (Am Hofgarten)
EXTD=
EXTT0=
EXTT1=
EXTT2=
EXTT3=
EXTT4=
EXTT5=
EXTT6=
EXTT7=
EXTT8=
EXTT9=
EXTT10=
EXTT11=
EXTT12=
PLAYORDER=
